# xmcd
#
# Track frame offsets:
#	150
#	11915
#	22252
#	34810
#	45577
#	56377
#	73782
#	83787
#	96395
#	113390
#	124592
#	131210
#	147580
#	156205
#	166865
#	179957
#	193932
#	206217
#	228259
#
# Disc length: 3116 seconds
#
# Revision: 1
# Processed by: cddbd v1.5.1PL2 Copyright (c) Steve Scherf et al.
# Submitted via: audiograbber 1.83.01
#
DISCID=1b0c2a13
DTITLE=Little Willie Littlefield - The Red One
DYEAR=1997
DGENRE=Boogie Woogie
TTITLE0=Here We Go Again
TTITLE1=Willie´s  Boogie Woogie Blues
TTITLE2=I Wonder
TTITLE3=Sea Cruise
TTITLE4=The Red One
TTITLE5=Drifting Blues
TTITLE6=Get Your Kicks On Route 66
TTITLE7=Boogie Woogie Jam
TTITLE8=Blues At Sunrise
TTITLE9=Caldonia
TTITLE10=Wooden Heart Boogie
TTITLE11=Rhumba Blues
TTITLE12=Tribute To The Count
TTITLE13=Piano Roll Blues
TTITLE14=Down By Zhe Riverside
TTITLE15=Little Willie´s Boogie
TTITLE16=Thunder And Rumble
TTITLE17=Call Him Hr. Blues
TTITLE18=Chief´s 40 Year Ann. Oldie Blues Boogie
EXTD=YEAR: 1997
EXTT0=
EXTT1=
EXTT2=
EXTT3=
EXTT4=
EXTT5=
EXTT6=
EXTT7=
EXTT8=
EXTT9=
EXTT10=
EXTT11=
EXTT12=
EXTT13=
EXTT14=
EXTT15=
EXTT16=
EXTT17=
EXTT18=
PLAYORDER=
